<?xml version="1.0" standalone="no"?>
<svg xmlns:xlink="http://www.w3.org/1999/xlink" id="wave" style="transform:rotate(180deg); transition: 0.3s" viewBox="0 0 1440 240" version="1.1" xmlns="http://www.w3.org/2000/svg"><defs><linearGradient id="sw-gradient-0" x1="0" x2="0" y1="1" y2="0"><stop stop-color="rgba(56, 80, 255, 1)" offset="0%"/><stop stop-color="rgba(56, 80, 255, 1)" offset="100%"/></linearGradient></defs><path style="transform:translate(0, 0px); opacity:1" fill="url(#sw-gradient-0)" d="M0,0L30,36C60,72,120,144,180,144C240,144,300,72,360,36C420,0,480,0,540,8C600,16,660,32,720,68C780,104,840,160,900,152C960,144,1020,72,1080,48C1140,24,1200,48,1260,80C1320,112,1380,152,1440,140C1500,128,1560,64,1620,48C1680,32,1740,64,1800,100C1860,136,1920,176,1980,164C2040,152,2100,88,2160,84C2220,80,2280,136,2340,148C2400,160,2460,128,2520,124C2580,120,2640,144,2700,140C2760,136,2820,104,2880,76C2940,48,3000,24,3060,28C3120,32,3180,64,3240,84C3300,104,3360,112,3420,120C3480,128,3540,136,3600,116C3660,96,3720,48,3780,32C3840,16,3900,32,3960,64C4020,96,4080,144,4140,148C4200,152,4260,112,4290,92L4320,72L4320,240L4290,240C4260,240,4200,240,4140,240C4080,240,4020,240,3960,240C3900,240,3840,240,3780,240C3720,240,3660,240,3600,240C3540,240,3480,240,3420,240C3360,240,3300,240,3240,240C3180,240,3120,240,3060,240C3000,240,2940,240,2880,240C2820,240,2760,240,2700,240C2640,240,2580,240,2520,240C2460,240,2400,240,2340,240C2280,240,2220,240,2160,240C2100,240,2040,240,1980,240C1920,240,1860,240,1800,240C1740,240,1680,240,1620,240C1560,240,1500,240,1440,240C1380,240,1320,240,1260,240C1200,240,1140,240,1080,240C1020,240,960,240,900,240C840,240,780,240,720,240C660,240,600,240,540,240C480,240,420,240,360,240C300,240,240,240,180,240C120,240,60,240,30,240L0,240Z"/></svg>